PathFileType	4	(X/Y/Z)
DataRate	CameraRate	NumFrames	NumMarkers	Units	OrigDataRate	OrigDataStartFrame	OrigNumFrames	
	120.0	120.0	4	39	mm	120.0	181	206
Frame#	Time	midhip	hip_r	hip_l	knee_r	knee_l	ankle_r	ankle_l	midasis	asis_r	asis_l	psis_r	psis_l	epicondLat_r	epicondLat_l	epicondMed_r	epicondMed_l	malleolusLat_r	malleolusLat_l	malleolusMedv_r	malleolusMedv_l	heel_r	heel_l	sternalnotch	xyphoidprocess	neck	subclavicle_r	subclavicle_l	toe_r	toe_l	thighwand_r	thighwand_l	upperleg1_r	upperleg1_l	upperleg2_r	upperleg2_l	shankwand_r	shankwand_l	lowerleg1_r	lowerleg1_l
	X1	Y1	Z1	X2	Y2	Z2	X3	Y3	Z3	X4	Y4	Z4	X5	Y5	Z5	X6	Y6	Z6	X7	Y7	Z7	X8	Y8	Z8	X9	Y9	Z9	X10	Y10	Z10	X11	Y11	Z11	X12	Y12	Z12	X13	Y13	Z13	X14	Y14	Z14	X15	Y15	Z15	X16	Y16	Z16	X17	Y17	Z17	X18	Y18	Z18	X19	Y19	Z19	X20	Y20	Z20	X21	Y21	Z21	X22	Y22	Z22	X23	Y23	Z23	X24	Y24	Z24	X25	Y25	Z25	X26	Y26	Z26	X27	Y27	Z27	X28	Y28	Z28	X29	Y29	Z29	X30	Y30	Z30	X31	Y31	Z31	X32	Y32	Z32	X33	Y33	Z33	X34	Y34	Z34	X35	Y35	Z35	X36	Y36	Z36	X37	Y37	Z37	X38	Y38	Z38	X39	Y39	Z39

	181	1.50833	1421.389	821.850	-271.881	1418.840	810.522	-194.790	1411.446	814.302	-346.690	1427.674	436.930	-158.561	1425.132	437.285	-388.578	1415.278	65.269	-125.918	1397.482	67.431	-423.039	1511.030	881.884	-270.568	1512.883	879.034	-152.967	1509.176	884.733	-388.169	1318.453	950.674	-232.466	1312.814	948.238	-286.859	1429.952	442.770	-98.890	1429.574	444.051	-448.030	1431.859	433.460	-217.898	1426.488	440.053	-322.080	1395.657	69.167	-88.988	1382.555	72.178	-462.009	1428.013	69.730	-157.022	1403.126	75.247	-394.416	1376.075	33.599	-157.009	1344.610	49.608	-411.136	1496.996	1322.407	-271.623	1541.306	1255.794	-276.026	1375.218	1379.083	-261.557	1504.020	1327.935	-219.534	1496.488	1323.824	-325.518	1508.273	41.074	-67.368	1500.918	43.744	-457.452	1585.985	577.528	-181.596	1459.752	583.067	-519.443	1516.167	631.604	-134.927	1400.288	626.314	-453.720	1504.572	544.969	-126.633	1406.292	538.515	-449.103	1382.733	151.394	-28.172	1493.275	188.736	-405.986	1389.351	157.961	-70.894	1451.171	188.439	-413.076
	182	1.51667	1421.297	821.830	-271.696	1418.809	810.528	-194.599	1411.155	814.130	-346.492	1427.633	436.979	-158.557	1425.228	437.302	-388.630	1415.230	65.176	-125.943	1397.518	67.483	-423.138	1510.881	881.784	-270.620	1512.938	879.070	-152.936	1508.825	884.497	-388.304	1318.305	950.652	-232.454	1312.690	948.174	-286.767	1429.937	442.791	-98.883	1429.604	444.113	-448.082	1431.780	433.543	-217.927	1426.283	439.767	-322.236	1395.625	69.070	-89.004	1382.548	72.239	-462.090	1428.138	69.590	-156.964	1404.216	74.363	-394.825	1376.150	33.612	-156.948	1344.601	49.577	-411.258	1496.871	1322.359	-271.654	1541.133	1255.711	-276.025	1375.203	1379.105	-261.564	1503.857	1327.878	-219.565	1496.408	1323.779	-325.544	1508.287	41.049	-67.360	1500.888	43.744	-457.462	1585.969	577.526	-181.616	1459.682	583.090	-519.445	1516.194	631.639	-134.939	1400.203	626.298	-453.601	1504.557	544.999	-126.654	1406.155	538.374	-449.109	1382.767	151.375	-28.155	1493.253	188.815	-406.019	1389.505	157.864	-70.869	1450.836	188.285	-412.412
	183	1.52500	1421.081	821.727	-271.496	1418.780	810.523	-194.428	1410.879	813.984	-346.311	1427.620	437.006	-158.553	1425.332	437.328	-388.713	1415.208	65.076	-125.959	1397.554	67.526	-423.206	1510.738	881.695	-270.666	1512.988	879.089	-152.897	1508.489	884.300	-388.434	1318.133	950.632	-232.438	1312.558	948.122	-286.696	1429.941	442.793	-98.878	1429.648	444.186	-448.163	1431.591	433.637	-217.927	1427.570	438.809	-324.105	1395.614	68.968	-89.014	1382.547	72.285	-462.144	1428.580	69.332	-156.768	1404.297	74.247	-394.919	1376.225	33.613	-156.910	1344.619	49.551	-411.340	1496.688	1322.385	-271.532	1540.917	1255.709	-275.805	1375.251	1379.123	-261.553	1503.619	1327.937	-219.459	1496.286	1323.766	-325.403	1508.302	41.012	-67.349	1500.872	43.728	-457.470	1585.942	577.522	-181.624	1459.616	583.087	-519.490	1516.285	631.577	-134.927	1399.950	626.246	-453.398	1504.550	545.013	-126.662	1406.546	538.937	-449.893	1382.816	151.366	-28.139	1493.256	188.845	-406.011	1389.883	157.676	-70.836	1451.000	188.116	-412.406
	184	1.53333	1420.842	821.633	-271.352	1418.773	810.508	-194.314	1410.670	813.900	-346.187	1427.638	437.012	-158.555	1425.447	437.375	-388.810	1415.224	64.990	-125.961	1397.590	67.537	-423.239	1510.627	881.649	-270.705	1513.035	879.095	-152.868	1508.219	884.203	-388.543	1317.949	950.617	-232.418	1312.409	948.092	-286.662	1429.962	442.780	-98.878	1429.704	444.272	-448.260	1431.468	433.670	-217.936	1428.526	438.703	-324.821	1395.632	68.881	-89.015	1382.546	72.294	-462.163	1428.773	69.160	-156.684	1403.490	75.055	-394.622	1376.281	33.602	-156.898	1344.652	49.544	-411.351	1496.514	1322.429	-271.456	1540.697	1255.721	-275.688	1375.307	1379.176	-261.510	1503.462	1328.018	-219.331	1496.099	1323.769	-325.385	1508.310	40.973	-67.340	1500.867	43.691	-457.477	1585.913	577.524	-181.609	1459.537	583.058	-519.576	1516.368	631.401	-134.882	1399.815	626.217	-453.463	1504.584	545.037	-126.667	1406.833	539.331	-450.266	1382.876	151.364	-28.135	1493.283	188.812	-405.957	1390.077	157.594	-70.850	1451.461	188.444	-412.826
